<?xml version="1.0" standalone="no"?>
<!DOCTYPE svg PUBLIC "-//W3C//DTD SVG 20010904//EN"
 "http://www.w3.org/TR/2001/REC-SVG-20010904/DTD/svg10.dtd">
<svg version="1.0" xmlns="http://www.w3.org/2000/svg"
 width="2134.000000pt" height="722.000000pt" viewBox="0 0 2134.000000 722.000000"
 preserveAspectRatio="xMidYMid meet">
<metadata>
Created by potrace 1.16, written by Peter Selinger 2001-2019
</metadata>
<g transform="translate(0.000000,722.000000) scale(0.100000,-0.100000)"
fill="#000000" stroke="none">
<path d="M0 3610 l0 -3610 10670 0 10670 0 0 3610 0 3610 -10670 0 -10670 0 0
-3610z m9642 2248 c25 -11 56 -30 68 -43 l21 -23 -16 -228 c-10 -126 -19 -231
-21 -233 -1 -2 -17 2 -35 8 -84 29 -146 2 -169 -75 -7 -23 -14 -129 -17 -253
-4 -173 -3 -215 8 -222 8 -5 53 -9 102 -9 l87 0 0 -270 0 -269 -97 -3 -98 -3
-3 -1083 -2 -1083 -123 3 -122 3 -3 1083 -2 1082 -70 0 -70 0 0 270 0 269 68
3 67 3 7 235 c16 527 49 691 164 806 65 66 151 77 256 32z m-894 -1900 c150
-1025 273 -1869 272 -1875 0 -10 -35 -13 -139 -13 l-138 0 -28 208 c-16 114
-42 306 -59 427 l-31 220 -279 3 c-154 1 -283 -1 -287 -5 -6 -6 -119 -813
-119 -847 0 -3 -61 -6 -135 -6 -106 0 -135 3 -135 13 0 13 514 3640 525 3705
l6 32 137 0 138 0 272 -1862z m6832 1557 l0 -305 -332 -2 -333 -3 -3 -457 -2
-458 285 0 285 0 0 -310 0 -310 -285 0 -285 0 0 -800 0 -800 -125 0 -125 0 0
1875 0 1875 460 0 460 0 0 -305z m490 -20 l0 -326 -117 3 -118 3 -3 323 -2
322 120 0 120 0 0 -325z m530 -1550 l0 -1875 -120 0 -120 0 0 1875 0 1875 120
0 120 0 0 -1875z m-10702 383 l1432 -1432 0 -1425 0 -1426 -937 936 c-516 514
-1806 1800 -2867 2857 l-1929 1922 1434 0 1434 0 1433 -1432z m8373 465 c8 -9
37 -13 90 -13 l79 0 0 -280 0 -279 -87 -3 -88 -3 -3 -655 c-2 -710 4 -879 35
-932 24 -41 60 -47 108 -18 19 12 35 20 36 18 0 -2 7 -118 14 -258 l13 -255
-31 -33 c-63 -65 -170 -92 -236 -58 -61 32 -123 148 -146 273 -29 157 -35 357
-35 1134 l0 788 -57 3 -58 3 -3 277 -2 277 57 3 58 3 5 280 5 280 115 182 115
183 3 -452 c1 -313 6 -455 13 -465z m-3915 26 c19 -11 47 -40 63 -63 l29 -42
-35 -280 c-19 -153 -36 -284 -38 -291 -2 -7 -21 5 -43 28 -74 74 -146 45 -191
-75 -57 -154 -71 -401 -71 -1303 l0 -723 -125 0 -125 0 0 1355 0 1355 115 0
115 0 0 -190 c0 -105 4 -190 9 -190 5 0 17 33 26 73 26 105 64 226 87 271 46
90 115 118 184 75z m769 -3 c199 -92 349 -491 396 -1054 15 -179 6 -672 -15
-827 -64 -476 -209 -822 -380 -904 -57 -28 -136 -28 -195 1 -151 73 -272 294
-337 618 -56 274 -80 651 -64 981 27 556 140 964 310 1123 94 88 187 108 285
62z m1271 8 c44 -21 107 -93 139 -158 35 -72 73 -221 92 -361 14 -103 17 -273
20 -1177 l4 -1058 -125 0 -126 0 0 923 c0 566 -4 957 -10 1012 -28 238 -105
344 -210 290 -95 -49 -151 -227 -170 -536 -5 -90 -10 -507 -10 -926 l0 -763
-120 0 -120 0 0 1355 0 1355 110 0 110 0 2 -197 c2 -126 7 -197 13 -195 6 1
19 33 31 70 27 89 104 249 139 291 16 19 47 47 69 62 46 34 108 39 162 13z
m1009 -5 c95 -45 188 -189 245 -379 71 -242 106 -521 117 -947 l6 -263 -333 0
-333 0 6 -134 c16 -335 108 -566 224 -566 29 0 43 8 74 39 43 46 66 107 88
242 l17 98 89 -40 c50 -22 104 -46 121 -54 l31 -13 -14 -88 c-48 -308 -141
-548 -249 -644 -107 -94 -263 -78 -365 38 -160 182 -248 564 -265 1147 -20
719 84 1279 281 1503 71 81 169 104 260 61z m4083 7 c73 -38 130 -137 179
-309 15 -54 32 -98 37 -98 5 0 24 39 41 88 63 175 128 279 196 313 52 27 103
25 154 -5 92 -53 152 -178 197 -412 21 -105 21 -137 25 -1220 l4 -1113 -120 0
-121 0 0 928 c-1 510 -5 973 -10 1030 -11 127 -35 206 -76 249 -79 84 -175 -1
-223 -197 -39 -161 -43 -257 -48 -1147 l-5 -863 -118 0 -119 0 -4 998 c-3 866
-6 1006 -20 1069 -21 95 -43 141 -78 158 -96 50 -180 -45 -224 -257 -28 -133
-35 -347 -35 -1155 l0 -813 -120 0 -120 0 0 1355 0 1355 110 0 110 0 0 -185
c0 -102 4 -185 9 -185 5 0 23 42 41 93 58 168 133 286 202 320 41 20 100 22
136 3z m1576 -1 c119 -50 221 -225 285 -488 57 -232 80 -452 88 -824 l6 -283
-333 0 -333 0 7 -117 c21 -369 104 -583 226 -583 31 0 44 7 73 39 19 21 42 60
51 87 20 64 46 187 46 225 0 16 3 29 6 29 8 0 228 -102 237 -110 10 -8 -55
-337 -84 -421 -37 -110 -99 -230 -146 -280 -150 -160 -355 -105 -472 129 -154
307 -222 955 -170 1627 38 501 173 881 341 964 51 25 121 27 172 6z m1111 -13
c70 -34 123 -88 164 -169 51 -103 99 -285 116 -443 l7 -65 -106 -52 c-59 -29
-111 -53 -116 -53 -6 0 -10 10 -10 23 0 43 -37 166 -65 212 -66 113 -221 108
-283 -9 -24 -45 -27 -62 -27 -146 0 -86 3 -100 27 -142 30 -49 97 -107 246
-208 211 -143 293 -265 341 -505 28 -140 35 -304 22 -485 -14 -178 -30 -268
-72 -395 -89 -266 -192 -368 -374 -366 -155 1 -277 121 -361 356 -39 110 -82
310 -86 404 l-3 65 114 49 c124 53 130 53 131 -13 0 -49 35 -191 61 -245 48
-102 145 -144 231 -99 40 21 87 83 103 138 20 67 20 235 0 283 -22 53 -37 67
-150 143 -212 142 -305 234 -360 355 -39 84 -71 203 -85 311 -14 107 -14 411
0 515 33 248 125 458 228 523 57 35 91 44 172 45 63 1 85 -4 135 -27z m-4105
-1387 l0 -1355 -120 0 -120 0 0 1355 0 1355 120 0 120 0 0 -1355z m-8380
-1554 c20 -10 51 -41 73 -73 l37 -56 313 4 c171 3 2877 29 6012 59 3135 30
5861 56 6058 59 l357 6 0 -44 0 -44 -242 -6 c-214 -5 -7886 -80 -10993 -107
-632 -5 -1232 -12 -1332 -15 l-182 -6 -21 -44 c-32 -65 -97 -104 -173 -104
-134 0 -228 114 -197 239 34 134 167 195 290 132z m18 -461 c67 -41 80 -144
26 -201 -32 -33 -78 -49 -146 -49 l-48 0 0 -70 0 -70 -45 0 -45 0 0 205 0 205
113 0 c95 0 117 -3 145 -20z m204 -147 l3 -168 88 -3 88 -3 -3 -32 -3 -32
-132 -3 -133 -3 0 206 0 205 45 0 45 0 2 -167z m497 -25 c39 -106 71 -199 71
-205 0 -9 -16 -13 -45 -13 -43 0 -45 1 -56 40 l-12 40 -73 0 -73 0 -12 -40
c-12 -38 -14 -40 -54 -40 -23 0 -44 2 -47 5 -4 5 52 165 137 393 2 7 22 12 49
12 l44 0 71 -192z m389 160 c-3 -33 -3 -33 -65 -36 l-63 -3 0 -169 0 -170 -45
0 -45 0 0 170 0 170 -60 0 -60 0 0 35 0 35 171 0 170 0 -3 -32z m281 -160 c39
-106 71 -199 71 -205 0 -9 -16 -13 -45 -13 -43 0 -45 1 -56 40 l-12 40 -72 0
-72 0 -16 -40 c-15 -39 -17 -40 -61 -40 -25 0 -46 1 -46 3 0 2 32 89 70 193
39 104 72 195 75 202 3 7 22 12 49 12 l44 0 71 -192z m379 160 l-3 -33 -87 -3
-88 -3 0 -49 0 -50 81 0 80 0 -3 -32 -3 -33 -77 -3 -77 -3 -3 -82 -3 -82 -42
-3 -43 -3 0 205 0 206 136 0 135 0 -3 -32z m308 4 c42 -29 67 -84 72 -157 9
-140 -60 -235 -172 -235 -109 0 -175 82 -176 215 0 86 27 148 80 183 30 20 45
23 100 20 47 -2 74 -10 96 -26z m374 13 c43 -22 60 -53 60 -108 0 -42 -5 -54
-33 -82 l-33 -33 37 -74 c21 -40 38 -79 39 -85 0 -9 -15 -13 -45 -13 l-45 0
-37 75 c-33 66 -41 75 -65 75 -27 0 -27 -1 -30 -72 l-3 -73 -45 0 -45 0 -3
203 -2 202 110 0 c79 0 119 -4 140 -15z m279 -113 c24 -70 47 -131 51 -135 4
-5 20 29 35 75 15 45 36 107 47 136 l19 52 60 0 59 0 0 -205 0 -205 -45 0 -44
0 -3 128 -3 127 -45 -125 c-44 -121 -46 -125 -76 -128 -35 -3 -30 -12 -89 152
-20 55 -38 102 -40 104 -3 3 -4 -53 -2 -124 l2 -129 -42 -3 -43 -3 0 205 0
206 58 0 57 0 44 -128z m619 -70 c39 -108 72 -201 72 -205 0 -4 -21 -7 -47 -5
-43 3 -47 5 -58 38 l-12 35 -73 0 -73 0 -12 -35 c-11 -33 -15 -35 -58 -38 -26
-2 -47 1 -47 5 0 4 33 97 72 205 l73 198 45 0 45 0 73 -198z m460 171 c44
-111 132 -356 132 -368 0 -11 -12 -15 -45 -15 -43 0 -45 1 -56 40 l-12 40 -72
0 -72 0 -12 -40 c-11 -39 -13 -40 -55 -40 -23 0 -45 2 -48 5 -3 3 26 90 64
193 38 103 71 193 73 200 3 7 22 12 48 12 39 0 46 -3 55 -27z m442 -8 l0 -35
-91 0 -90 0 3 -47 3 -48 78 -3 77 -3 0 -34 0 -35 -80 0 -80 0 0 -85 0 -85 -45
0 -45 0 0 205 0 205 135 0 135 0 0 -35z m297 15 c44 -26 56 -54 50 -113 -3
-40 -11 -56 -34 -77 l-30 -27 38 -74 c21 -41 38 -80 39 -86 0 -9 -15 -13 -45
-13 l-45 0 -37 75 c-33 66 -41 75 -65 75 -27 0 -27 -1 -30 -72 l-3 -73 -45 0
-45 0 -3 203 -2 202 112 0 c94 0 118 -3 145 -20z m203 -185 l0 -205 -45 0 -45
0 0 205 0 205 45 0 45 0 0 -205z m327 185 c36 -22 58 -52 68 -92 7 -27 6 -28
-38 -28 -37 0 -47 4 -52 20 -10 33 -34 50 -70 50 -18 0 -41 -7 -49 -15 -38
-39 -45 -180 -11 -232 31 -46 106 -39 125 12 8 22 16 25 55 25 43 0 46 -1 39
-22 -15 -52 -36 -77 -77 -97 -88 -43 -183 -16 -228 63 -20 35 -24 55 -24 131
0 103 17 143 75 182 44 30 140 32 187 3z m392 -172 c39 -106 71 -199 71 -205
0 -9 -16 -13 -45 -13 -43 0 -45 1 -56 40 l-12 40 -72 0 -72 0 -16 -40 c-14
-37 -18 -40 -55 -40 -21 0 -41 2 -44 5 -3 3 26 90 63 193 38 103 71 193 74
200 3 7 22 12 49 12 l44 0 71 -192z m276 74 l70 -117 3 118 3 117 44 0 45 0 0
-205 0 -205 -43 0 -42 0 -69 115 c-38 64 -73 118 -77 121 -5 3 -9 -49 -9 -115
l0 -121 -45 0 -45 0 0 205 0 205 48 0 47 -1 70 -117z m514 -74 c39 -106 71
-199 71 -205 0 -9 -16 -13 -45 -13 -43 0 -45 1 -56 40 l-12 40 -72 0 -72 0
-16 -40 c-14 -37 -18 -40 -55 -40 -21 0 -41 2 -44 5 -3 3 26 90 63 193 38 103
71 193 74 200 3 7 22 12 49 12 l44 0 71 -192z m470 177 c68 -35 106 -112 99
-204 -6 -74 -32 -127 -81 -159 -37 -25 -49 -27 -136 -27 l-96 0 -3 203 -2 202
95 0 c65 0 105 -5 124 -15z m431 -20 l0 -35 -96 0 -95 0 3 -47 3 -48 78 -3 77
-3 0 -34 0 -35 -81 0 -80 0 3 -47 3 -48 93 -3 92 -3 0 -35 0 -35 -137 3 -138
3 -3 203 -2 202 140 0 140 0 0 -35z m498 3 c-3 -33 -3 -33 -65 -36 l-63 -3 0
-169 0 -170 -45 0 -45 0 0 170 0 170 -60 0 -60 0 0 35 0 35 171 0 170 0 -3
-32z m136 -50 c13 -46 30 -104 38 -129 7 -26 17 -48 22 -50 9 -4 26 46 71 204
l16 57 50 0 c27 0 49 -3 48 -7 0 -5 -30 -96 -68 -203 l-67 -195 -48 0 -48 0
-63 181 c-34 99 -66 190 -69 202 -7 21 -4 22 43 22 l50 0 25 -82z m633 58 c22
-19 28 -32 28 -65 0 -33 -7 -47 -38 -79 l-37 -38 28 -27 c35 -33 38 -33 46 -2
5 21 12 25 41 25 31 0 35 -3 35 -25 0 -13 -7 -43 -16 -65 -16 -41 -16 -41 10
-69 14 -15 26 -30 26 -34 0 -11 -85 -8 -96 3 -7 7 -23 5 -49 -6 -26 -11 -56
-15 -89 -11 -41 4 -55 11 -83 41 -46 50 -45 92 3 146 34 37 35 40 20 62 -9 12
-16 42 -16 66 0 35 6 49 29 73 40 39 115 42 158 5z m393 -48 c49 -166 58 -193
66 -191 7 2 21 43 70 211 l15 52 50 0 c48 0 50 -1 43 -22 -3 -13 -35 -104 -69
-203 l-62 -180 -48 0 -47 0 -63 180 c-34 99 -65 190 -69 203 -7 21 -5 22 43
22 l50 0 21 -72z m380 -133 l0 -205 -45 0 -45 0 0 205 0 205 45 0 45 0 0 -205z
m289 190 c134 -69 132 -309 -3 -374 -36 -18 -59 -21 -128 -19 l-83 3 -3 203
-2 202 95 0 c65 0 105 -5 124 -15z m429 -17 l-3 -33 -93 -3 -93 -3 3 -47 3
-47 78 -3 77 -3 0 -34 0 -35 -81 0 -80 0 3 -47 3 -48 93 -3 92 -3 0 -35 0 -35
-137 3 -138 3 -3 203 -2 202 140 0 141 0 -3 -32z m303 9 c98 -65 108 -271 18
-354 -69 -63 -181 -56 -241 15 -39 46 -51 94 -46 177 6 84 27 128 78 162 47
32 143 32 191 0z m377 3 c33 -20 68 -82 57 -100 -4 -6 -23 -10 -43 -10 -31 0
-40 5 -54 30 -14 24 -24 30 -52 30 -32 0 -66 -20 -66 -40 0 -19 41 -46 96 -65
69 -23 110 -60 119 -107 13 -71 -39 -127 -124 -136 -91 -8 -174 38 -187 106
l-6 32 44 0 c39 0 45 -3 55 -29 17 -47 100 -54 123 -11 15 28 3 46 -43 65
-105 45 -130 60 -148 89 -34 56 -16 120 43 149 48 24 145 22 186 -3z m498 4
c21 -10 45 -35 62 -63 23 -40 27 -57 27 -126 -1 -57 -6 -91 -19 -118 -61 -125
-239 -129 -304 -6 -21 39 -23 55 -20 136 3 101 16 128 78 171 40 27 125 30
176 6z m308 -99 c38 -63 72 -115 77 -115 5 0 9 52 9 115 l0 115 45 0 45 0 -2
-202 -3 -203 -45 0 -45 0 -70 117 c-38 65 -73 117 -77 118 -5 0 -8 -54 -8
-120 l0 -120 -45 0 -45 0 0 205 0 205 48 0 47 0 69 -115z m328 -52 l3 -168 88
-3 87 -3 0 -35 0 -35 -132 3 -133 3 -3 203 -2 202 45 0 45 0 2 -167z m316 -35
l-3 -203 -42 -3 -43 -3 0 205 0 206 45 0 45 0 -2 -202z m237 79 l70 -117 3
120 3 120 44 0 45 0 0 -205 0 -205 -44 0 -43 0 -74 123 -74 122 -5 -120 -5
-120 -42 -3 -43 -3 0 206 0 206 47 -3 47 -3 71 -118z m513 91 l-3 -33 -93 -3
-93 -3 3 -47 3 -47 78 -3 78 -3 -3 -32 -3 -32 -78 -3 -78 -3 3 -47 3 -47 93
-3 92 -3 0 -34 0 -35 -140 0 -140 0 0 205 0 205 141 0 140 0 -3 -32z m234
-248 c10 -13 18 -39 18 -60 0 -77 -93 -108 -151 -51 -38 39 -38 74 1 113 27
27 36 30 73 25 26 -4 48 -14 59 -27z"/>
<path d="M8325 4948 c-4 -12 -185 -1383 -185 -1401 0 -4 88 -7 195 -7 l195 0
0 23 c0 12 -40 326 -90 697 -49 371 -90 680 -90 687 0 17 -19 17 -25 1z"/>
<path d="M4345 4348 c-3 -24 -5 -251 -3 -506 3 -398 5 -464 18 -472 20 -13
1380 -13 1400 0 13 8 15 75 18 482 2 260 0 488 -3 506 l-6 32 -709 0 -709 0
-6 -42z m1353 -26 c10 -7 12 -103 10 -448 l-3 -439 -645 0 -645 0 -3 439 c-2
345 0 441 10 448 7 4 294 8 638 8 344 0 631 -4 638 -8z"/>
<path d="M4820 4124 c-11 -27 -14 -454 -4 -491 11 -42 45 -37 134 17 65 40
151 90 155 90 3 0 34 18 70 40 36 22 69 40 73 40 12 0 52 44 52 56 0 17 -41
49 -105 84 -33 18 -95 55 -138 82 -43 26 -80 48 -83 48 -2 0 -26 14 -52 30
-61 37 -89 39 -102 4z m138 -105 c138 -75 223 -132 220 -146 -3 -17 -277 -177
-287 -168 -3 4 -7 68 -9 142 -3 129 2 203 14 203 3 0 31 -14 62 -31z"/>
<path d="M4612 3258 c-20 -21 -35 -24 -140 -28 l-117 -5 -3 -26 c-4 -34 14
-39 139 -39 81 0 100 -3 122 -20 14 -11 39 -20 57 -20 18 0 43 9 57 20 25 19
41 20 512 20 267 0 496 3 509 6 18 5 22 13 20 33 l-3 26 -510 5 -510 5 -25 23
c-14 13 -36 22 -55 22 -18 0 -39 -9 -53 -22z"/>
<path d="M10968 4252 c-83 -55 -146 -220 -179 -472 -19 -144 -16 -597 5 -743
30 -212 93 -381 161 -433 54 -41 129 -30 173 26 94 121 140 339 149 705 11
461 -46 774 -162 893 -35 35 -49 42 -81 42 -22 0 -51 -8 -66 -18z"/>
<path d="M13274 4291 c-44 -27 -73 -71 -101 -154 -33 -97 -53 -239 -53 -374
l0 -113 207 0 206 0 -6 136 c-12 248 -74 458 -149 504 -41 25 -64 25 -104 1z"/>
<path d="M18943 4290 c-90 -54 -153 -279 -153 -542 l0 -98 205 0 205 0 0 80
c0 255 -66 502 -149 557 -42 28 -66 29 -108 3z"/>
<path d="M7555 1796 c-59 -26 -83 -75 -65 -131 16 -48 53 -75 104 -75 64 1
106 45 106 112 0 43 -24 76 -66 94 -40 17 -41 17 -79 0z"/>
<path d="M7542 1298 l3 -63 49 1 c59 1 91 30 81 73 -9 37 -32 51 -87 51 l-49
0 3 -62z"/>
<path d="M9610 1335 c-20 -21 -25 -39 -28 -93 -5 -83 14 -137 54 -153 73 -27
124 52 109 168 -12 95 -82 135 -135 78z"/>
<path d="M14292 1228 l3 -133 28 -3 c81 -10 134 113 93 213 -17 40 -42 55 -91
55 l-36 0 3 -132z"/>
<path d="M17052 1228 l3 -133 39 1 c69 3 107 77 91 176 -10 57 -43 88 -95 88
l-41 0 3 -132z"/>
<path d="M17773 1345 c-12 -8 -27 -31 -33 -51 -15 -43 -8 -141 11 -172 37 -59
119 -44 138 26 38 136 -32 256 -116 197z"/>
<path d="M18662 1353 c-43 -17 -59 -171 -23 -229 32 -53 92 -53 125 -1 36 57
26 192 -17 222 -21 15 -60 18 -85 8z"/>
</g>
</svg>
