<?xml version="1.0" standalone="no"?>
<!DOCTYPE svg PUBLIC "-//W3C//DTD SVG 20010904//EN"
 "http://www.w3.org/TR/2001/REC-SVG-20010904/DTD/svg10.dtd">
<svg version="1.0" xmlns="http://www.w3.org/2000/svg"
 width="128.000000pt" height="128.000000pt" viewBox="0 0 128.000000 128.000000"
 preserveAspectRatio="xMidYMid meet">
<metadata>
Created by potrace 1.16, written by Peter Selinger 2001-2019
</metadata>
<g transform="translate(0.000000,128.000000) scale(0.100000,-0.100000)"
fill="#000000" stroke="none">
<path d="M550 1271 c-14 -4 -41 -6 -61 -3 -54 6 -105 -14 -151 -61 -57 -59
-68 -91 -68 -201 0 -86 2 -97 24 -120 13 -15 26 -26 30 -26 3 0 6 38 6 85 0
69 3 88 18 100 9 8 40 35 68 60 l51 45 45 -43 c25 -24 84 -65 131 -91 90 -49
107 -66 107 -111 0 -40 16 -64 40 -58 11 3 20 9 20 14 0 5 13 15 29 23 54 28
60 151 11 246 -23 46 -90 106 -144 131 -41 19 -110 23 -156 10z"/>
<path d="M770 571 c0 -22 70 -62 192 -110 68 -27 136 -83 154 -128 21 -48 16
-64 -5 -18 -35 78 -103 122 -266 170 -42 13 -42 13 -37 -12 7 -36 -17 -72 -63
-96 -32 -18 -57 -22 -133 -22 -90 0 -95 1 -118 28 -16 19 -24 40 -24 67 l0 39
-87 -30 c-49 -17 -97 -36 -108 -41 -27 -14 -74 -59 -87 -83 -10 -19 -10 -19 8
-4 29 25 126 66 190 80 49 11 58 11 62 -1 10 -30 60 -69 103 -80 73 -20 186 2
240 47 l31 26 51 -18 c116 -40 194 -111 217 -196 19 -71 60 -19 60 77 0 107
-39 154 -181 216 -52 22 -112 52 -134 67 -66 44 -65 44 -65 22z"/>
</g>
</svg>
