<?xml version="1.0" standalone="no"?>
<!DOCTYPE svg PUBLIC "-//W3C//DTD SVG 20010904//EN"
 "http://www.w3.org/TR/2001/REC-SVG-20010904/DTD/svg10.dtd">
<svg version="1.0" xmlns="http://www.w3.org/2000/svg"
 width="320.000000pt" height="320.000000pt" viewBox="0 0 320.000000 320.000000"
 preserveAspectRatio="xMidYMid meet">

<g transform="translate(0.000000,320.000000) scale(0.100000,-0.100000)"
fill="#000000" stroke="none">
<path d="M0 2083 c0 -870 3 -1120 13 -1132 10 -12 9 -13 -1 -7 -10 6 -13 1
-10 -19 2 -18 11 -31 25 -36 23 -8 23 -8 14 40 -1 2 -8 -2 -16 -9 -8 -7 -15
-8 -15 -4 0 5 9 15 20 22 14 8 19 9 18 1 -2 -6 3 -14 11 -17 9 -3 12 0 9 10
-4 8 -1 15 5 16 7 0 22 3 34 6 13 2 25 1 28 -3 2 -5 -3 -8 -13 -8 -34 0 -42
-3 -42 -16 0 -16 38 -40 51 -32 5 4 7 10 4 15 -11 18 14 20 31 3 10 -10 19
-17 22 -15 2 2 7 0 10 -4 4 -4 1 -4 -5 0 -7 4 -13 3 -13 -3 0 -14 18 -23 25
-12 6 10 43 7 54 -5 3 -3 -5 -15 -19 -26 -22 -18 -22 -20 -5 -17 11 2 30 -2
42 -9 18 -10 21 -9 18 6 -2 9 -4 22 -4 27 -1 6 -6 3 -11 -5 -5 -8 -10 -13 -10
-10 -4 26 -7 122 -3 112 3 -6 9 -9 15 -6 7 4 7 0 1 -12 -5 -11 -8 -25 -7 -31
1 -7 2 -17 3 -23 0 -5 8 -10 17 -10 9 0 12 -5 8 -12 -4 -7 9 5 29 26 20 22 34
42 32 46 -2 4 2 7 9 7 11 0 11 -5 0 -26 -8 -14 -14 -31 -14 -37 0 -6 -7 -18
-17 -25 -15 -13 -15 -12 -4 9 19 36 8 36 -13 0 -11 -17 -14 -28 -7 -24 6 4 11
2 11 -3 0 -6 -5 -11 -11 -11 -5 0 -8 -4 -4 -10 5 -9 43 18 41 30 0 3 5 15 12
27 9 17 18 20 44 16 28 -4 30 -3 19 11 -7 8 -11 21 -8 28 4 8 6 7 6 -4 1 -10
5 -18 11 -18 5 0 8 6 6 13 -1 6 -1 9 1 4 3 -4 9 -4 14 -1 6 3 5 11 -2 20 -9
11 -9 14 0 14 7 0 9 5 5 12 -4 7 -3 8 4 4 12 -7 12 -33 -1 -52 -11 -19 4 -24
21 -7 14 14 17 13 29 -3 12 -16 15 -17 24 -4 8 12 9 11 7 -5 -2 -13 4 -21 17
-23 17 -4 18 -2 6 12 -11 13 -12 19 -2 29 7 7 11 8 10 2 -3 -13 17 -62 29 -69
13 -8 10 27 -4 41 -7 7 -11 21 -9 30 2 10 4 21 4 26 1 4 6 7 12 7 8 0 9 -4 0
-13 -6 -8 -8 -17 -4 -20 3 -4 13 1 21 11 9 11 9 8 -2 -11 -15 -24 -14 -31 5
-29 3 1 4 -10 1 -24 -2 -13 1 -31 8 -39 13 -15 2 -21 -16 -7 -5 4 -1 -1 9 -10
22 -21 47 -23 47 -5 0 6 7 3 16 -8 13 -18 14 -17 8 15 -6 27 -4 32 8 28 8 -4
15 -1 15 6 0 14 -36 19 -38 5 -3 -19 -5 -24 -12 -37 -5 -6 -13 -12 -19 -12 -6
0 -5 7 3 17 8 9 9 14 3 10 -7 -4 -15 1 -19 10 -3 10 -1 19 4 21 6 2 11 11 12
20 0 11 2 13 6 4 3 -7 -1 -19 -7 -27 -10 -12 -9 -15 3 -15 18 0 27 32 15 54
-5 9 -7 22 -4 29 2 7 5 3 5 -8 1 -17 3 -18 12 -5 9 13 10 13 8 0 -3 -30 1 -40
17 -40 14 0 14 3 4 15 -10 12 -10 15 0 15 7 0 10 8 7 20 -3 11 -1 18 4 14 5
-3 9 3 9 12 0 10 3 15 6 11 4 -3 1 -20 -5 -38 -6 -17 -9 -35 -6 -39 6 -10 45
-1 45 11 0 5 -8 6 -17 2 -15 -5 -15 -3 2 11 19 16 19 17 1 12 -15 -5 -17 -4
-8 7 7 8 11 16 9 18 -1 2 7 -5 18 -16 13 -12 16 -23 10 -27 -6 -5 -6 -11 1
-18 8 -8 16 -7 27 4 9 9 17 16 20 16 10 0 -1 -83 -12 -90 -8 -5 -9 -10 -3 -14
5 -3 12 1 16 9 8 21 26 19 27 -2 0 -12 2 -13 6 -5 3 9 9 10 17 3 12 -10 41 -9
52 2 4 3 -6 4 -21 1 -19 -3 -24 -1 -19 7 4 8 3 9 -4 5 -11 -6 -11 11 -2 44 1
3 6 -6 11 -19 6 -15 14 -21 24 -17 10 4 22 -5 34 -25 16 -26 19 -28 25 -12 4
9 4 14 0 10 -14 -14 -32 26 -24 54 5 18 4 29 -2 31 -16 6 5 41 26 44 9 1 14
-1 11 -6 -7 -11 22 -33 34 -26 6 4 8 13 5 20 -3 7 2 18 10 25 12 10 17 8 26
-9 6 -11 15 -18 21 -15 5 4 10 0 11 -7 0 -7 2 -17 3 -23 2 -5 3 -15 4 -22 0
-7 11 -18 24 -24 12 -6 19 -8 14 -4 -8 9 20 45 35 45 5 0 1 -11 -7 -24 -11
-16 -13 -26 -5 -31 6 -3 10 -3 9 2 -4 22 3 24 22 7 11 -10 20 -14 19 -9 -2 6
-1 12 0 15 7 19 7 41 -1 46 -5 3 -9 -2 -9 -10 0 -8 -5 -18 -10 -21 -13 -8 -7
32 7 46 6 6 9 19 6 28 -4 13 -3 13 5 2 6 -8 8 -20 5 -28 -3 -8 0 -13 8 -11 9
2 13 -5 13 -17 -3 -36 -9 -50 -27 -61 -17 -9 -16 -11 5 -29 13 -11 18 -14 11
-6 -8 10 -7 17 8 32 20 20 30 24 28 12 -3 -20 2 -34 10 -29 5 4 11 3 14 -1 2
-5 2 -2 1 5 -2 6 1 12 6 12 6 0 10 -5 10 -10 0 -6 11 -8 26 -4 19 5 25 4 20
-5 -4 -6 -1 -14 8 -17 8 -3 12 -13 9 -22 -4 -14 -3 -15 5 -2 6 8 9 17 6 21 -2
4 0 10 5 13 5 4 12 2 16 -4 3 -5 12 -10 18 -10 7 1 6 6 -4 13 -10 7 -14 19
-10 30 7 19 25 24 27 7 1 -5 2 -14 3 -19 2 -15 30 -21 37 -8 4 7 4 9 -1 5 -12
-11 -35 11 -28 28 3 7 9 11 14 8 5 -3 7 -9 4 -14 -3 -4 3 -7 12 -5 27 4 35 -5
21 -23 -12 -15 -11 -16 5 -3 12 9 14 17 7 26 -11 13 -3 25 16 25 8 0 11 -7 8
-17 -4 -14 -3 -15 4 -5 5 8 12 13 16 13 3 -1 7 2 9 6 1 4 -13 10 -30 14 -18 3
-34 5 -34 3 -1 -2 -2 -8 -3 -13 -2 -15 -16 -25 -17 -13 -2 21 -4 27 -12 38 -4
7 0 15 9 18 9 4 14 9 11 12 -3 4 0 13 8 21 13 12 13 18 -1 41 -11 19 -12 22
-2 10 8 -10 18 -15 21 -11 7 7 1 -33 -7 -46 -3 -5 1 -11 9 -15 8 -3 15 -11 15
-18 0 -8 -3 -9 -8 -3 -9 13 -31 13 -34 1 -5 -16 45 -17 54 -1 11 19 10 30 -2
30 -18 0 -16 18 2 21 10 1 16 -3 15 -8 -1 -6 4 -13 12 -16 8 -2 11 0 7 6 -3 5
1 12 9 15 9 4 12 1 8 -9 -6 -16 17 -16 30 1 9 12 4 -25 -5 -41 -4 -6 3 -10 17
-10 13 0 21 4 19 8 -3 5 -7 22 -9 39 -4 26 -3 28 11 14 19 -18 26 -19 42 -3 9
9 12 9 12 0 0 -7 -4 -12 -8 -12 -5 0 -16 -6 -26 -13 -19 -14 -12 -49 9 -41 7
3 16 1 20 -5 8 -14 25 -14 25 0 0 5 -4 8 -9 5 -5 -4 -8 2 -7 11 2 10 9 18 16
18 7 0 15 14 17 30 2 17 9 35 15 40 8 7 9 6 4 -3 -4 -7 -2 -20 5 -28 7 -8 8
-14 3 -13 -23 4 -26 -3 -9 -21 10 -11 22 -17 28 -13 5 3 7 1 4 -5 -6 -8 -42
-10 -42 -2 0 1 -8 3 -18 5 -11 2 -16 0 -12 -3 4 -4 11 -8 16 -8 22 -3 23 -5
10 -13 -18 -12 -4 -34 17 -26 12 5 12 1 -4 -17 -11 -13 -12 -18 -3 -10 9 6 19
9 22 5 4 -3 7 1 7 10 0 9 -8 21 -17 26 -17 10 -15 12 17 15 22 2 25 36 3 37
-10 0 -13 3 -6 5 7 3 9 12 6 20 -3 8 0 14 7 14 6 0 9 -4 5 -9 -3 -6 5 -20 17
-32 13 -12 17 -19 10 -14 -10 5 -13 1 -11 -16 2 -13 0 -29 -4 -36 -4 -6 -3
-14 2 -17 5 -4 12 -2 16 3 3 6 12 8 20 5 8 -4 12 -10 9 -15 -3 -5 -9 -7 -13
-5 -4 3 -8 -2 -8 -10 0 -11 6 -9 23 7 l22 21 16 -29 c8 -15 15 -23 16 -18 0
17 -31 56 -40 50 -4 -3 -11 2 -14 10 -3 8 -11 14 -17 13 -6 -2 -14 4 -17 12
-4 11 0 11 21 -3 15 -10 27 -14 27 -11 0 4 10 -1 22 -12 13 -11 18 -13 13 -4
-14 23 -13 49 2 54 7 3 13 1 13 -5 0 -6 4 -8 9 -5 5 4 11 1 13 -5 2 -7 8 -6
16 4 10 12 10 17 1 23 -8 5 -9 3 -4 -7 7 -11 6 -12 -7 -2 -8 7 -18 11 -21 8
-4 -3 -4 -2 -1 3 3 4 22 8 42 8 48 2 47 1 31 20 -15 19 -21 47 -8 38 5 -3 7
-9 4 -14 -3 -5 4 -15 16 -24 12 -8 18 -19 14 -25 -3 -6 -1 -11 5 -11 6 0 9 -4
5 -9 -3 -5 0 -13 6 -17 19 -11 29 18 13 40 -8 11 -14 29 -14 39 0 11 -4 15
-12 11 -6 -4 -8 -3 -5 4 8 12 32 10 44 -3 4 -4 2 -5 -4 -1 -9 5 -13 0 -13 -13
0 -12 5 -21 11 -21 5 0 8 4 5 8 -2 4 17 8 44 7 l49 0 -27 -22 c-19 -15 -29
-18 -34 -10 -4 7 -8 8 -8 2 0 -5 -4 -4 -9 4 -6 9 -11 10 -15 3 -4 -6 3 -16 15
-22 17 -9 24 -8 40 6 18 17 20 17 34 -2 16 -22 18 -28 8 -38 -14 -14 -11 -35
5 -29 10 4 13 2 8 -5 -4 -7 -3 -12 2 -12 6 0 13 7 16 16 4 10 2 13 -6 8 -7 -4
-8 -3 -4 4 5 8 1 10 -11 6 -15 -5 -16 -4 -3 5 12 8 19 6 32 -10 13 -15 18 -17
18 -7 0 8 -3 18 -7 22 -5 4 -9 12 -9 17 -4 30 -6 32 -13 16 -6 -17 -8 -16 -20
10 -7 15 -9 25 -5 20 4 -4 17 1 28 10 16 14 18 14 8 2 -10 -13 -9 -19 3 -29 9
-7 13 -20 10 -28 -4 -12 -3 -13 10 -2 8 7 12 17 8 24 -10 15 -12 56 -2 50 4
-2 6 -13 4 -24 -2 -12 2 -20 10 -20 9 0 12 9 10 30 -2 16 -1 32 3 34 5 3 8 -9
7 -25 0 -16 5 -28 10 -26 6 1 9 6 7 11 -2 5 3 4 11 -2 8 -7 18 -8 23 -4 4 4 2
-1 -5 -10 -7 -10 -17 -15 -22 -12 -5 3 -9 0 -9 -7 0 -7 -3 -9 -7 -6 -10 10
-43 -23 -43 -43 0 -10 -10 -25 -22 -34 -20 -14 -20 -15 -3 -9 11 3 32 15 47
25 27 18 47 10 32 -14 -4 -6 -3 -8 4 -4 5 3 13 0 16 -6 3 -7 3 -3 0 9 -3 14 1
25 13 32 14 8 15 11 3 12 -8 1 -18 1 -22 0 -11 -1 -10 7 3 30 6 12 17 18 25
15 8 -3 14 -1 14 4 0 6 5 10 11 10 8 0 7 -5 -1 -15 -7 -9 -19 -14 -27 -11 -7
3 -13 1 -13 -3 0 -5 7 -11 15 -15 8 -3 15 -13 15 -21 0 -10 5 -13 13 -9 6 4 2
-3 -10 -15 -23 -21 -27 -54 -8 -58 6 -2 10 0 10 5 0 4 4 14 10 22 8 13 7 13
-8 1 -9 -7 -17 -9 -17 -3 0 12 25 34 31 27 3 -2 5 5 6 16 1 11 -5 23 -13 26
-20 7 -17 21 5 28 11 3 19 11 17 18 -1 7 -1 9 1 5 3 -5 11 -8 19 -8 12 0 12 4
4 20 -6 11 -15 18 -20 15 -4 -3 -6 5 -2 17 l5 22 9 -23 c4 -12 13 -19 18 -16
8 5 7 12 -2 23 -7 10 -1 7 13 -6 14 -12 28 -19 32 -16 3 4 4 -6 1 -21 -3 -17
-1 -24 6 -20 5 3 10 -1 10 -10 0 -9 5 -13 10 -10 6 4 7 11 4 17 -4 7 -2 8 4 4
7 -4 12 -3 12 3 0 5 -8 12 -17 14 -17 4 -17 5 0 6 9 0 17 7 17 14 0 8 3 8 9
-2 5 -8 7 -20 4 -28 -3 -7 1 -13 9 -13 7 0 14 9 14 20 0 11 -4 20 -9 20 -4 0
-5 5 -2 10 4 6 12 5 21 -4 17 -17 19 -30 2 -20 -7 4 -8 3 -4 -4 10 -17 36 -15
30 2 -3 8 -1 17 5 21 7 3 8 0 5 -9 -3 -9 -1 -16 5 -16 6 0 11 6 11 13 0 6 5 4
11 -6 6 -9 14 -15 20 -12 15 10 10 -1 -7 -15 -8 -8 -14 -9 -12 -4 3 9 -4 14
-22 14 -7 0 -7 -7 1 -21 16 -31 -8 -43 -34 -18 -28 26 -71 20 -75 -10 -2 -15
0 -21 7 -16 6 3 8 11 5 17 -4 6 -2 8 4 4 5 -3 12 0 15 6 2 7 8 10 12 5 5 -4
-7 -24 -26 -44 -19 -20 -28 -33 -21 -29 6 4 13 2 13 -3 1 -6 2 -15 3 -20 0 -5
5 -13 10 -18 6 -5 6 -2 1 6 -6 11 -4 13 9 8 10 -4 15 -3 11 3 -3 6 -2 10 4 10
5 0 13 -5 16 -10 12 -19 37 12 32 37 -3 16 2 27 14 33 15 9 17 6 15 -15 -1
-14 -6 -28 -9 -32 -4 -3 -7 -11 -7 -16 0 -5 9 1 20 14 18 22 26 17 21 -14 -1
-5 3 -6 9 -2 5 3 10 0 10 -7 0 -7 6 -4 13 7 13 19 23 104 11 92 -3 -3 -6 -22
-6 -41 0 -20 -4 -39 -9 -42 -5 -3 -9 2 -9 10 0 14 -11 20 -31 18 -3 -1 -6 12
-6 28 0 25 3 28 18 19 11 -6 16 -16 13 -27 -5 -14 -3 -14 7 2 9 15 9 20 -5 28
-9 5 -14 14 -10 19 4 6 11 6 19 -1 10 -8 16 -7 25 7 10 16 11 16 6 1 -3 -10
-1 -18 4 -18 5 0 7 -9 5 -21 -3 -15 2 -23 15 -26 11 -3 17 -10 14 -15 -3 -5
-13 -7 -21 -4 -8 3 -11 2 -8 -3 3 -6 13 -9 23 -8 24 1 27 37 3 37 -13 0 -17 8
-15 33 1 17 2 34 4 37 1 3 2 14 2 25 -1 17 0 17 4 3 3 -10 10 -18 16 -18 5 0
7 7 4 16 -4 10 -2 13 6 8 7 -5 9 -2 5 9 -4 11 -2 14 9 10 15 -6 19 -23 5 -23
-5 0 -14 -12 -19 -27 -6 -16 -11 -22 -11 -15 -1 7 -5 10 -11 7 -19 -11 -10
-25 16 -25 14 0 22 4 19 10 -3 5 -2 17 3 27 7 12 9 6 8 -25 0 -23 -4 -42 -8
-42 -5 0 -8 4 -8 8 0 5 -7 9 -15 9 -22 0 -19 -5 15 -22 20 -11 28 -20 24 -33
-3 -9 6 1 20 23 26 40 36 34 15 -8 -7 -12 -8 -19 -4 -15 5 4 15 2 24 -4 13
-10 14 -10 4 2 -17 19 -16 31 2 24 8 -4 15 -1 15 6 0 6 -4 9 -9 6 -12 -8 -21
30 -9 42 6 6 3 12 -7 16 -13 4 -16 2 -12 -9 4 -8 2 -17 -3 -20 -6 -4 -10 1
-10 10 0 9 -4 14 -9 11 -5 -4 -8 2 -6 11 1 10 9 17 16 15 9 -1 8 3 -3 11 -22
17 -22 23 -4 30 8 3 22 -4 33 -16 16 -19 16 -20 1 -8 -23 17 -24 -2 -2 -23 19
-19 34 -13 29 13 -2 10 3 18 11 18 10 0 11 -4 3 -14 -16 -19 1 -16 23 4 13 12
18 13 16 4 -2 -7 3 -16 11 -19 9 -3 11 0 6 8 -5 9 -4 11 4 6 9 -6 9 -11 0 -22
-6 -7 -16 -11 -22 -7 -6 4 -8 -4 -5 -21 3 -14 1 -26 -3 -26 -9 0 -13 21 -10
50 2 13 1 13 -8 0 -6 -8 -8 -22 -5 -32 2 -9 0 -19 -6 -23 -5 -3 -10 -12 -10
-18 0 -8 4 -7 9 2 11 17 51 22 51 7 0 -6 4 -5 9 3 8 12 12 12 25 2 17 -14 36
-7 36 14 0 7 8 16 17 19 12 5 14 9 5 18 -7 7 -12 16 -12 22 0 5 6 1 14 -9 8
-11 12 -23 10 -27 -2 -4 0 -9 5 -13 6 -3 7 -13 4 -21 -5 -13 -1 -15 15 -10 17
6 21 4 16 -8 -3 -9 -10 -14 -14 -11 -5 3 -12 0 -16 -6 -4 -7 -3 -9 4 -5 6 3
13 2 17 -4 4 -6 10 -8 15 -5 5 3 13 -3 19 -12 6 -10 11 -13 11 -6 0 7 7 10 18
7 14 -5 14 -4 2 4 -8 6 -17 9 -22 6 -4 -2 -12 5 -18 16 -13 24 -12 24 29 4 18
-9 35 -13 38 -10 4 3 2 6 -4 6 -17 0 -8 39 15 62 16 18 20 35 19 74 0 38 -4
51 -14 47 -7 -3 -13 0 -13 6 0 6 6 10 13 8 9 -1 13 225 15 1101 l2 1102 -1600
0 -1600 0 0 -1117z m721 221 c40 -20 87 -80 95 -119 17 -94 -20 -170 -103
-211 -43 -22 -61 -25 -97 -20 -138 21 -209 175 -133 286 55 82 152 108 238 64z
m1942 -8 c112 -61 120 -230 15 -306 -164 -119 -372 75 -266 247 53 87 157 111
251 59z m64 -801 c29 -20 38 -62 19 -90 -30 -45 -213 -134 -351 -170 -38 -10
-75 -22 -81 -27 -6 -4 -13 -6 -16 -3 -2 3 -29 1 -59 -4 -259 -44 -612 9 -848
129 -81 41 -96 91 -38 134 27 20 28 20 75 2 242 -95 367 -125 552 -132 224
-10 433 36 605 131 87 48 110 53 142 30z m-2392 -455 c10 -11 16 -20 13 -20
-3 0 -13 9 -23 20 -10 11 -16 20 -13 20 3 0 13 -9 23 -20z m1250 -10 c-3 -5
-12 -10 -18 -10 -7 0 -6 4 3 10 19 12 23 12 15 0z m440 -10 c10 -11 16 -20 13
-20 -3 0 -13 9 -23 20 -10 11 -16 20 -13 20 3 0 13 -9 23 -20z m-1120 0 c3 -6
-1 -7 -9 -4 -18 7 -21 14 -7 14 6 0 13 -4 16 -10z m2025 6 c0 -2 -8 -10 -17
-17 -16 -13 -17 -12 -4 4 13 16 21 21 21 13z m-2456 -14 c3 -5 -1 -9 -9 -9 -8
0 -12 4 -9 9 3 4 7 8 9 8 2 0 6 -4 9 -8z m2102 -18 c0 -13 -2 -21 -5 -19 -2 3
-11 -1 -20 -7 -12 -10 -12 -8 1 8 12 14 14 24 8 30 -7 7 -6 11 3 11 7 0 13
-11 13 -23z m151 19 c-4 -3 -2 -12 3 -19 12 -14 23 -61 12 -50 -7 7 -8 12 -11
38 0 7 -8 3 -17 -8 -14 -18 -15 -18 -4 4 6 12 8 22 5 22 -4 0 -3 5 0 10 3 6 9
10 12 10 4 0 3 -3 0 -7z m388 -11 c-3 -3 -11 0 -18 7 -9 10 -8 11 6 5 10 -3
15 -9 12 -12z m-1848 -14 c-3 -8 -6 -5 -6 6 -1 11 2 17 5 13 3 -3 4 -12 1 -19z
m48 4 c-3 -3 -11 0 -18 7 -9 10 -8 11 6 5 10 -3 15 -9 12 -12z m642 3 c0 -8
-4 -12 -9 -9 -5 3 -6 10 -3 15 9 13 12 11 12 -6z m343 -18 c0 -5 -4 -5 -10 -2
-5 3 -10 14 -10 23 0 15 2 15 10 2 5 -8 10 -19 10 -23z m355 24 c3 -5 2 -12
-3 -15 -5 -3 -9 1 -9 9 0 17 3 19 12 6z m-2628 -16 c0 -8 -4 -12 -9 -9 -5 3
-6 10 -3 15 9 13 12 11 12 -6z m143 1 c0 5 7 0 15 -10 10 -13 15 -15 15 -6 0
7 2 11 5 9 2 -3 0 -18 -4 -35 -5 -16 -10 -23 -10 -16 -1 7 -5 11 -10 7 -15 -8
-41 24 -34 42 5 12 3 14 -7 8 -9 -5 -11 -4 -6 4 6 9 11 9 22 0 8 -6 14 -8 14
-3z m57 -8 c-3 -8 -6 -5 -6 6 -1 11 2 17 5 13 3 -3 4 -12 1 -19z m283 -1 c0
-7 -4 -6 -10 3 -8 12 -10 12 -10 1 0 -8 -3 -12 -6 -8 -9 9 6 28 17 22 5 -4 9
-12 9 -18z m380 14 c2 -1 -1 -6 -8 -13 -9 -9 -9 -15 0 -26 12 -14 22 -49 11
-38 -4 3 -13 0 -22 -7 -13 -10 -14 -10 -5 3 9 13 10 22 5 46 -2 9 -31 -17 -31
-28 0 -5 6 -6 13 -2 6 4 8 3 4 -1 -4 -5 -14 -10 -22 -11 -11 -2 -12 2 -5 16 5
9 6 21 2 26 -4 5 -3 6 2 2 15 -13 38 12 26 28 -9 9 -7 12 7 9 10 -2 20 -4 23
-4z m345 -1 c3 -6 -1 -7 -9 -4 -18 7 -21 14 -7 14 6 0 13 -4 16 -10z m158 -7
c-5 -12 -3 -14 7 -8 9 6 11 4 5 -4 -5 -9 -11 -9 -17 -3 -6 6 -7 15 -4 21 11
17 16 13 9 -6z m284 11 c-3 -3 -12 -4 -19 -1 -8 3 -5 6 6 6 11 1 17 -2 13 -5z
m317 -19 c-3 -8 -11 -13 -17 -12 -7 1 -11 -9 -9 -25 3 -28 -11 -38 -24 -16 -5
7 -3 8 6 3 10 -6 12 -3 7 14 -3 14 1 26 14 34 10 8 16 17 11 22 -4 5 -2 5 5 1
7 -4 10 -13 7 -21z m374 12 c8 -10 6 -13 -9 -14 -19 -2 -25 8 -12 20 8 9 9 9
21 -6z m77 4 c3 -5 2 -12 -3 -15 -5 -3 -9 1 -9 9 0 17 3 19 12 6z m-2362 -14
c3 -8 -1 -14 -8 -14 -7 0 -11 6 -8 14 3 7 6 13 8 13 2 0 5 -6 8 -13z m707 -2
c-5 -7 -9 -14 -7 -16 1 -2 0 -3 -2 -1 -11 7 -7 29 5 29 9 0 11 -4 4 -12z m201
-2 c13 -16 12 -17 -3 -4 -10 7 -18 15 -18 17 0 8 8 3 21 -13z m46 10 c-4 -3
-1 -13 6 -22 10 -14 10 -14 -4 -4 -9 7 -20 9 -25 5 -4 -4 -2 1 5 11 7 9 16 17
19 17 3 0 2 -3 -1 -7z m154 -6 c-6 -8 -8 -17 -4 -20 3 -4 1 -7 -5 -7 -16 0
-15 27 1 33 19 8 20 8 8 -6z m521 -19 c-9 -18 -18 -35 -19 -37 -1 -1 -6 0 -11
3 -8 5 34 66 45 66 1 0 -6 -15 -15 -32z m449 15 c12 -16 12 -17 -2 -6 -9 7
-19 10 -22 6 -4 -3 -7 -1 -7 5 0 17 16 15 31 -5z m162 2 c-3 -9 -8 -14 -10
-11 -3 3 -2 9 2 15 9 16 15 13 8 -4z m807 -5 c-6 -11 -13 -20 -16 -20 -2 0 0
9 6 20 6 11 13 20 16 20 2 0 0 -9 -6 -20z m-2796 2 c3 -5 -1 -9 -9 -9 -8 0
-12 4 -9 9 3 4 7 8 9 8 2 0 6 -4 9 -8z m51 -11 c-3 -6 -10 -9 -15 -6 -5 3 -11
1 -15 -5 -3 -5 -11 -10 -18 -10 -6 0 -2 6 8 14 11 8 23 12 27 10 5 -3 8 0 8 7
0 7 3 10 6 6 3 -3 3 -11 -1 -16z m203 -1 c-7 -11 -17 -19 -21 -17 -11 3 -9 22
2 22 5 0 13 3 17 8 13 13 14 7 2 -13z m123 -13 l-24 -22 19 27 c10 14 21 24
23 22 3 -3 -6 -15 -18 -27z m939 23 c0 -5 -5 -10 -11 -10 -5 0 -7 5 -4 10 3 6
8 10 11 10 2 0 4 -4 4 -10z m461 -7 c13 -16 12 -17 -3 -4 -17 13 -22 21 -14
21 2 0 10 -8 17 -17z m879 11 c0 -8 -19 -13 -24 -6 -3 5 1 9 9 9 8 0 15 -2 15
-3z m97 -42 c-12 -14 -12 -22 -1 -52 7 -19 13 -33 14 -30 1 3 4 16 6 30 5 26
24 53 24 34 0 -14 31 -14 49 0 12 9 13 8 6 -4 -5 -8 -10 -21 -11 -29 -2 -7
-12 -22 -24 -33 -18 -16 -19 -22 -8 -29 10 -7 10 -9 -3 -9 -9 0 -20 7 -23 16
-3 8 -10 12 -16 9 -5 -3 -10 -1 -10 6 0 8 -5 8 -17 -2 -15 -11 -16 -11 -5 1 6
8 12 18 12 23 0 4 -6 5 -12 1 -7 -4 -10 -4 -6 1 4 4 2 15 -5 23 -9 13 -9 14 1
8 14 -8 15 -5 6 18 -3 9 -10 14 -14 11 -5 -3 -11 -1 -14 3 -3 5 7 9 22 8 23
-1 27 3 24 24 -2 22 -1 23 9 7 8 -14 7 -22 -4 -35z m-2670 23 c0 -8 -4 -12 -9
-9 -5 3 -6 10 -3 15 9 13 12 11 12 -6z m527 -2 c4 -10 4 -14 0 -10 -4 4 -14 1
-22 -6 -13 -11 -14 -9 -1 11 17 26 15 26 23 5z m263 -5 c-3 -14 -12 -22 -25
-23 l-21 -2 22 23 c28 28 27 28 24 2z m58 -8 c12 -15 14 -20 4 -12 -9 6 -18
10 -20 7 -3 -2 -6 5 -6 17 -1 11 -1 19 0 17 1 -2 11 -15 22 -29z m941 10 c0
-13 -5 -19 -14 -15 -7 3 -16 5 -20 5 -3 0 3 7 14 15 10 8 19 15 19 15 1 0 1
-9 1 -20z m417 4 c4 -1 12 -2 17 -3 6 0 10 -5 10 -11 0 -6 -9 -6 -23 -1 -14 6
-30 5 -41 -1 -16 -9 -16 -8 -6 11 7 13 16 19 23 14 7 -4 15 -8 20 -9z m47 6
c0 -5 -2 -10 -4 -10 -3 0 -8 5 -11 10 -3 6 -1 10 4 10 6 0 11 -4 11 -10z
m-2150 -4 c0 -2 -8 -10 -17 -17 -16 -13 -17 -12 -4 4 13 16 21 21 21 13z m588
-14 c2 -7 -1 -12 -8 -12 -6 0 -9 4 -6 9 4 5 1 12 -4 14 -6 3 -5 4 2 3 6 -1 14
-8 16 -14z m338 9 c-4 -5 0 -11 6 -14 7 -3 3 -4 -9 -4 -17 1 -19 4 -11 14 12
15 22 18 14 4z m891 -23 c-3 -7 -5 -2 -5 12 0 14 2 19 5 13 2 -7 2 -19 0 -25z
m41 3 c-15 -25 -25 -27 -25 -6 0 8 4 12 8 10 4 -3 10 2 13 11 4 9 9 14 12 11
3 -3 -1 -14 -8 -26z m572 17 c0 -4 -6 -8 -14 -8 -8 0 -17 4 -20 8 -2 4 4 8 15
8 10 0 19 -4 19 -8z m55 4 c-6 -4 -15 -18 -21 -31 -9 -21 -11 -22 -17 -7 -4 9
-3 15 2 12 5 -3 11 3 14 14 3 11 11 20 19 20 8 0 9 -3 3 -8z m178 1 c3 -5 -1
-14 -9 -21 -8 -7 -14 -11 -14 -8 0 2 -3 11 -6 20 -6 16 20 24 29 9z m-2936
-31 c0 -13 0 -22 -1 -20 0 2 -9 12 -18 23 -16 20 -16 21 0 21 11 0 18 -9 19
-24z m564 5 c-10 -9 -11 -8 -5 6 3 10 9 15 12 12 3 -3 0 -11 -7 -18z m599 17
c0 -8 -19 -13 -24 -6 -3 5 1 9 9 9 8 0 15 -2 15 -3z m157 0 c-3 -3 -12 -4 -19
-1 -8 3 -5 6 6 6 11 1 17 -2 13 -5z m283 -9 c0 -12 -19 -12 -23 0 -4 9 -1 12
9 8 7 -3 14 -7 14 -8z m654 -1 c3 -8 2 -12 -4 -9 -6 3 -10 10 -10 16 0 14 7
11 14 -7z m176 -4 c-6 -11 -13 -20 -16 -20 -2 0 0 9 6 20 6 11 13 20 16 20 2
0 0 -9 -6 -20z m464 4 c3 -8 2 -12 -4 -9 -6 3 -10 10 -10 16 0 14 7 11 14 -7z
m-2493 -21 c-12 -20 -14 -14 -5 12 4 9 9 14 11 11 3 -2 0 -13 -6 -23z m496 12
c0 -6 -6 -12 -12 -12 -6 0 -12 6 -12 12 0 6 6 12 12 12 6 0 12 -6 12 -12z
m590 -17 c-3 -7 -5 -2 -5 12 0 14 2 19 5 13 2 -7 2 -19 0 -25z m193 13 c7 -15
6 -23 -6 -35 -18 -18 -34 -21 -34 -5 0 5 4 7 10 4 6 -4 7 1 3 11 -5 13 -3 16
10 11 11 -4 14 -2 11 8 -7 18 -26 10 -43 -17 -12 -19 -11 -23 10 -40 l24 -19
-28 13 c-20 8 -27 17 -24 29 3 10 2 20 -2 22 -3 2 -1 3 5 1 6 -1 16 7 22 17
15 24 29 24 42 0z m1177 -6 c-7 -13 -14 -20 -15 -14 -2 5 2 16 8 24 18 21 20
18 7 -10z m-2774 7 c3 8 6 8 6 2 1 -6 -6 -17 -14 -24 -8 -7 -15 -9 -15 -4 0 5
-5 2 -10 -6 -8 -12 -10 -11 -10 6 0 27 10 36 26 23 8 -7 14 -6 17 3z m77 4 c0
-2 -8 -10 -17 -17 -16 -13 -17 -12 -4 4 13 16 21 21 21 13z m524 -11 c-4 -8
-11 -15 -16 -15 -6 0 -5 6 2 15 7 8 14 15 16 15 2 0 1 -7 -2 -15z m23 -7 c-3
-8 -6 -5 -6 6 -1 11 2 17 5 13 3 -3 4 -12 1 -19z m387 10 c4 3 4 -1 0 -11 -4
-13 -2 -16 9 -11 26 10 30 -16 5 -36 -30 -25 -11 -25 22 0 14 10 25 27 25 37
0 11 7 18 20 18 15 0 19 -6 17 -24 -4 -23 -3 -23 13 -8 20 21 32 22 16 3 -9
-11 -9 -16 0 -21 8 -6 6 -11 -6 -18 -18 -10 -35 5 -35 31 0 7 -5 10 -10 7 -8
-5 -8 -11 0 -20 12 -15 -16 -75 -39 -83 -8 -3 -11 0 -8 5 3 5 -3 17 -13 26
-17 15 -19 14 -23 -1 -3 -9 -4 -3 -4 13 0 17 9 37 21 47 l21 18 -25 -3 c-16
-1 -24 3 -22 11 3 16 -6 15 -24 -3 -21 -20 -27 -19 -43 8 -13 19 -13 21 1 9
12 -10 18 -9 28 3 9 10 17 12 30 5 9 -5 20 -6 24 -2z m44 -13 c-3 -3 -9 2 -12
12 -6 14 -5 15 5 6 7 -7 10 -15 7 -18z m1305 -10 c-3 -9 -8 -14 -10 -11 -3 3
-2 9 2 15 9 16 15 13 8 -4z m313 -40 c-6 -11 -12 -22 -13 -24 -2 -2 -9 1 -17
8 -8 6 -19 10 -26 9 -20 -5 -23 20 -3 26 10 3 22 5 26 3 5 -1 13 7 19 18 11
19 11 19 18 0 4 -11 2 -29 -4 -40z m-2061 27 c13 -1 19 -32 6 -32 -5 0 -15 8
-20 18 -6 9 -11 12 -11 7 0 -6 5 -16 12 -23 6 -6 9 -14 6 -18 -3 -3 -14 8 -24
25 -18 31 -19 31 -28 9 -5 -13 -9 -30 -8 -38 1 -10 0 -11 -4 -2 -3 6 -10 10
-15 6 -5 -3 -5 5 0 19 6 14 7 28 3 33 -4 4 -2 4 5 0 6 -3 14 -2 18 3 3 6 15 7
28 2 12 -5 27 -9 32 -9z m192 -14 c-3 -7 -5 -2 -5 12 0 14 2 19 5 13 2 -7 2
-19 0 -25z m33 18 c0 -3 -4 -8 -10 -11 -5 -3 -10 -1 -10 4 0 6 5 11 10 11 6 0
10 -2 10 -4z m535 -6 c3 -5 1 -10 -4 -10 -6 0 -11 5 -11 10 0 6 2 10 4 10 3 0
8 -4 11 -10z m-387 -27 c-3 -37 -16 -45 -40 -21 -18 18 -16 44 2 33 5 -3 11
-1 15 5 12 19 25 10 23 -17z m974 -9 c-19 -26 -32 -31 -32 -11 0 17 17 34 35
34 11 0 10 -5 -3 -23z m520 -11 c-6 -3 -9 -10 -6 -15 4 -6 2 -8 -4 -5 -5 4 -8
16 -5 28 4 15 8 17 17 8 8 -8 8 -13 -2 -16z m-482 1 c0 -8 -19 -13 -24 -6 -3
5 1 9 9 9 8 0 15 -2 15 -3z m256 -5 c4 -8 -1 -9 -17 -5 -22 7 -23 6 -4 -5 11
-7 22 -13 23 -15 8 -6 -10 -44 -18 -39 -5 3 -6 13 -3 23 6 16 5 15 -11 -1 -14
-14 -21 -15 -32 -6 -8 6 -11 16 -8 21 4 6 10 5 15 -3 6 -11 9 -9 9 7 0 33 30
48 46 23z"/>
<path d="M162 971 c-10 -6 -10 -10 2 -20 16 -13 29 -2 18 16 -4 7 -13 8 -20 4z"/>
<path d="M3119 891 c0 -3 -2 -16 -5 -28 -2 -12 1 -25 6 -28 6 -4 7 1 3 11 -4
11 -2 15 4 11 6 -4 19 3 29 15 11 12 13 18 7 14 -7 -4 -13 -3 -13 2 0 9 -30
12 -31 3z m31 -17 c0 -8 -19 -13 -24 -6 -3 5 1 9 9 9 8 0 15 -2 15 -3z"/>
<path d="M1289 903 c-13 -16 -12 -17 4 -4 16 13 21 21 13 21 -2 0 -10 -8 -17
-17z"/>
<path d="M1410 900 c0 -5 7 -7 15 -4 8 4 15 8 15 10 0 2 -7 4 -15 4 -8 0 -15
-4 -15 -10z"/>
<path d="M1400 863 c0 -7 -6 -13 -14 -13 -23 0 -27 -27 -5 -33 17 -5 18 -3 8
9 -10 12 -9 13 4 9 19 -8 29 6 16 25 -6 10 -9 11 -9 3z"/>
<path d="M2951 862 c-9 -7 -10 -11 -3 -7 7 4 21 1 30 -6 9 -7 14 -9 10 -5 -4
5 0 15 10 22 15 12 15 13 -7 11 -13 -1 -31 -8 -40 -15z"/>
<path d="M1291 856 c-9 -10 -9 -16 -1 -21 6 -4 14 -4 17 -1 4 3 0 6 -8 6 -12
0 -12 2 1 10 8 5 12 12 9 15 -4 3 -12 -1 -18 -9z"/>
<path d="M1056 931 c-5 -7 3 -23 18 -38 14 -14 23 -29 20 -34 -2 -5 4 -14 16
-21 28 -18 25 -25 -10 -20 -29 4 -41 -10 -20 -23 6 -3 10 -1 10 4 0 6 7 11 15
11 12 0 13 -4 6 -18 -7 -14 -6 -19 4 -19 7 0 11 7 7 15 -3 9 -1 13 5 9 17 -10
11 27 -8 51 -10 13 -15 30 -12 39 4 11 2 14 -5 9 -6 -4 -17 5 -25 20 -9 18
-16 23 -21 15z"/>
<path d="M2435 920 c-4 -6 1 -17 9 -26 9 -8 16 -18 16 -22 0 -3 -5 -1 -11 5
-8 8 -19 8 -40 0 -30 -12 -36 -21 -19 -32 6 -3 10 -20 10 -37 0 -37 9 -33 12
5 1 15 6 27 11 27 5 0 7 -6 4 -14 -3 -8 4 -22 16 -33 22 -18 22 -18 6 2 -9 11
-14 26 -12 33 3 7 -3 20 -13 27 -11 8 -14 15 -8 15 6 0 23 -9 37 -20 28 -23
37 -25 37 -9 0 5 -5 7 -12 3 -8 -5 -9 -2 -5 9 3 9 2 19 -4 23 -6 3 -8 11 -6
18 6 15 -20 39 -28 26z m-25 -70 c0 -5 -2 -10 -4 -10 -3 0 -8 5 -11 10 -3 6
-1 10 4 10 6 0 11 -4 11 -10z"/>
<path d="M144 914 c3 -7 0 -17 -7 -23 -26 -21 -3 -81 30 -81 8 0 11 -5 7 -12
-4 -7 -3 -8 5 -4 14 9 5 26 -15 26 -16 0 -18 9 -6 27 5 8 13 9 22 3 13 -8 13
-10 1 -10 -8 0 -12 -2 -9 -5 2 -3 21 4 41 14 31 16 34 20 17 24 -11 3 -18 1
-14 -4 3 -5 -6 -8 -20 -7 -15 1 -26 7 -26 13 0 6 -7 20 -16 31 -8 10 -13 14
-10 8z m11 -45 c-5 -23 -13 -35 -19 -28 -5 5 12 49 18 49 3 0 3 -10 1 -21z"/>
<path d="M982 872 c0 -33 5 -52 19 -65 13 -12 19 -14 19 -5 0 9 3 9 10 -2 5
-8 10 -10 10 -5 0 6 -7 21 -16 33 -11 17 -13 26 -5 36 8 9 5 18 -13 34 l-24
20 0 -46z m22 -17 c-4 -15 -2 -25 5 -25 6 0 11 -4 11 -10 0 -5 -7 -7 -15 -4
-15 6 -21 45 -8 57 12 12 13 7 7 -18z"/>
<path d="M2120 908 c0 -4 4 -8 9 -8 6 0 12 4 15 8 3 5 -1 9 -9 9 -8 0 -15 -4
-15 -9z"/>
<path d="M55 900 c3 -5 1 -18 -4 -27 -6 -10 -11 -13 -11 -6 0 6 -8 11 -18 10
-14 -1 -18 -10 -18 -43 0 -24 2 -41 5 -39 2 3 10 0 18 -6 18 -16 17 -1 -2 17
-17 17 -20 44 -6 44 5 0 12 -10 14 -22 4 -22 4 -22 6 -2 0 12 8 27 16 34 18
15 20 -1 3 -19 -10 -10 -8 -10 10 0 19 12 24 12 32 -1 12 -19 13 -33 1 -25 -6
3 -8 -3 -6 -15 5 -25 -11 -35 -23 -14 -8 15 -10 15 -15 0 -4 -9 -1 -15 6 -13
7 1 11 -5 9 -13 -3 -11 2 -10 17 4 12 11 21 25 21 33 0 7 5 13 11 13 5 0 7 -5
3 -12 -5 -7 -3 -8 5 -4 9 6 8 13 -5 27 -9 10 -14 25 -11 33 5 11 0 15 -15 13
-15 -1 -23 4 -26 18 -4 20 -3 20 11 1 9 -13 16 -15 21 -8 3 6 -2 16 -13 21
-25 14 -44 14 -36 1z"/>
<path d="M490 895 c-6 -7 -13 -26 -16 -42 l-5 -28 17 25 c10 14 19 27 20 29 1
1 8 0 15 -5 9 -5 7 -11 -6 -21 -11 -7 -16 -13 -13 -13 3 0 2 -16 -2 -35 -4
-20 -4 -38 1 -41 5 -3 9 10 9 28 0 18 5 40 11 48 8 12 9 10 4 -9 -5 -16 -4
-21 4 -17 14 9 15 -6 1 -20 -6 -6 -2 -10 12 -11 13 -1 18 1 13 5 -9 7 -12 15
-17 67 -2 11 -10 27 -20 37 -14 14 -19 14 -28 3z"/>
<path d="M446 884 c-4 -10 -15 -14 -34 -11 -20 3 -29 0 -29 -9 0 -7 4 -11 8
-9 8 6 31 -20 24 -27 -3 -2 1 -5 8 -6 6 -1 26 -4 42 -7 22 -4 25 -3 10 3 -20
9 -28 51 -11 63 4 4 4 9 -2 13 -5 3 -13 -1 -16 -10z m-7 -30 c-5 -6 -6 -14 -2
-17 3 -4 4 -7 1 -7 -3 0 -12 8 -21 18 -14 16 -14 17 8 17 16 0 20 -4 14 -11z"/>
<path d="M1047 893 c-4 -6 2 -18 13 -28 23 -21 27 -8 7 20 -8 11 -16 14 -20 8z"/>
<path d="M1574 886 c-10 -8 -16 -18 -11 -22 4 -4 7 -2 7 4 0 7 5 12 11 12 5 0
7 -5 4 -10 -4 -6 -2 -17 5 -25 7 -9 8 -15 0 -20 -5 -3 -10 -11 -10 -17 0 -5 9
0 20 13 18 22 26 17 21 -14 -1 -5 3 -6 8 -2 6 3 8 12 4 20 -6 17 32 22 42 5 4
-6 -1 -7 -11 -3 -11 4 -15 3 -10 -5 7 -12 46 -12 46 1 0 4 5 5 12 1 7 -4 8 -3
4 5 -4 6 -11 9 -16 6 -5 -3 -12 0 -15 5 -4 6 -21 10 -38 8 -30 -3 -32 -1 -30
27 0 17 -1 24 -4 18 -2 -7 -9 -13 -14 -13 -6 0 -7 5 -4 10 9 14 2 13 -21 -4z"/>
<path d="M2007 874 c-27 -27 -27 -44 -1 -44 8 0 13 -4 10 -8 -3 -5 1 -9 8 -9
23 0 6 27 -18 28 -19 1 -18 2 4 8 16 5 25 14 26 29 2 27 2 27 -29 -4z"/>
<path d="M2143 875 c-6 -7 -10 -15 -8 -17 3 -2 5 -18 7 -36 1 -18 6 -32 11
-32 4 0 6 17 2 37 -3 22 -1 39 6 44 6 3 7 9 3 12 -5 3 -14 -1 -21 -8z"/>
<path d="M2870 871 c-7 -15 -7 -22 2 -27 7 -4 10 -4 6 1 -4 4 -3 16 3 26 5 11
7 19 5 19 -3 0 -10 -9 -16 -19z"/>
<path d="M775 870 c-3 -5 1 -10 10 -10 9 0 13 5 10 10 -3 6 -8 10 -10 10 -2 0
-7 -4 -10 -10z"/>
<path d="M830 871 c0 -7 -4 -9 -10 -6 -6 3 -10 -4 -10 -17 0 -18 -2 -20 -10
-8 -5 8 -10 11 -11 5 -6 -42 -4 -55 7 -59 8 -3 13 -2 13 2 -4 25 2 42 14 36 6
-4 9 -4 5 1 -4 4 -3 16 3 27 6 11 8 22 5 26 -3 3 -6 0 -6 -7z"/>
<path d="M2566 868 c3 -5 10 -6 15 -3 5 4 9 1 9 -4 0 -6 4 -11 10 -11 5 0 7 6
4 14 -3 8 -14 14 -24 13 -10 -1 -16 -5 -14 -9z"/>
<path d="M737 853 c3 -7 15 -12 27 -12 17 1 17 2 3 6 -9 2 -15 8 -13 12 3 4
-1 8 -8 8 -8 0 -12 -6 -9 -14z"/>
<path d="M1036 861 c-4 -6 0 -23 9 -38 12 -21 14 -22 10 -6 -5 18 -3 21 17 16
13 -3 21 -4 18 -2 -3 2 -15 12 -27 22 -13 12 -23 15 -27 8z"/>
<path d="M2100 860 c17 -11 15 -12 -22 -14 -15 -1 -31 -6 -35 -10 -4 -5 -2 -6
5 -2 15 9 15 1 1 -26 -8 -15 -8 -23 2 -32 9 -8 10 -8 4 2 -4 9 1 19 14 28 12
9 18 20 15 26 -4 6 -2 8 4 4 6 -3 9 -19 7 -34 l-4 -27 13 28 c7 15 15 25 18
21 9 -8 4 18 -5 34 -5 6 -14 12 -20 12 -7 0 -6 -4 3 -10z"/>
<path d="M554 843 c2 -9 8 -19 16 -21 10 -4 9 -6 -1 -13 -8 -5 -9 -9 -3 -9 17
0 37 27 29 40 -3 6 -11 8 -16 5 -5 -4 -9 -1 -9 4 0 6 -4 11 -9 11 -5 0 -8 -8
-7 -17z"/>
<path d="M3180 840 c-6 -11 -8 -20 -6 -20 3 0 10 9 16 20 6 11 8 20 6 20 -3 0
-10 -9 -16 -20z"/>
<path d="M3026 842 c-2 -4 -1 -14 5 -22 7 -12 9 -10 9 8 0 23 -5 28 -14 14z"/>
<path d="M75 829 c-4 -6 -5 -12 -2 -15 2 -3 7 2 10 11 7 17 1 20 -8 4z"/>
<path d="M377 815 c8 -39 10 -41 15 -11 3 14 2 23 -3 21 -4 -3 -10 1 -13 7 -3
7 -3 0 1 -17z"/>
<path d="M1959 834 c6 -3 7 -14 1 -29 -6 -15 -6 -27 1 -30 5 -4 6 -12 3 -18
-4 -7 -3 -9 1 -4 13 11 10 81 -4 83 -6 1 -7 0 -2 -2z"/>
<path d="M202 808 c4 -19 1 -28 -11 -30 -12 -3 -11 -5 5 -10 20 -5 21 -2 17
26 -3 17 -7 33 -10 36 -3 3 -4 -7 -1 -22z"/>
<path d="M254 805 c1 -13 5 -27 9 -30 4 -3 5 -2 2 2 -3 3 0 12 5 18 7 9 6 16
-3 24 -11 9 -14 6 -13 -14z"/>
<path d="M1730 825 c0 -5 5 -17 10 -25 5 -8 10 -10 10 -5 0 6 -5 17 -10 25 -5
8 -10 11 -10 5z"/>
<path d="M2450 821 c0 -5 7 -12 16 -15 21 -8 24 -8 24 5 0 5 -4 7 -10 4 -5 -3
-10 -1 -10 4 0 6 -4 11 -10 11 -5 0 -10 -4 -10 -9z"/>
<path d="M347 813 c-11 -10 -8 -20 7 -26 8 -3 13 0 12 8 -3 19 -11 27 -19 18z"/>
<path d="M721 815 c-2 -24 14 -33 29 -17 13 14 12 15 -2 9 -9 -3 -19 -1 -22 6
-2 7 -5 8 -5 2z"/>
<path d="M1161 804 c0 -11 3 -14 6 -6 3 7 2 16 -1 19 -3 4 -6 -2 -5 -13z"/>
<path d="M1984 809 c-3 -6 -2 -15 4 -21 6 -6 12 -6 17 3 6 8 4 10 -5 4 -10 -6
-12 -4 -7 8 7 19 2 23 -9 6z"/>
<path d="M2888 802 c-16 -17 -16 -18 10 -17 15 0 30 -4 35 -10 4 -5 5 1 4 15
-5 30 -26 35 -49 12z m37 -2 c-3 -5 -11 -10 -16 -10 -6 0 -7 5 -4 10 3 6 11
10 16 10 6 0 7 -4 4 -10z"/>
<path d="M3005 810 c-3 -5 -1 -10 4 -10 6 0 11 5 11 10 0 6 -2 10 -4 10 -3 0
-8 -4 -11 -10z"/>
<path d="M3192 800 c0 -14 2 -19 5 -12 2 6 2 18 0 25 -3 6 -5 1 -5 -13z"/>
<path d="M400 800 c0 -5 5 -10 11 -10 5 0 7 5 4 10 -3 6 -8 10 -11 10 -2 0 -4
-4 -4 -10z"/>
<path d="M430 796 c0 -19 17 -29 25 -16 4 6 10 8 15 5 5 -3 11 -1 14 4 7 11
-13 9 -33 -3 -11 -7 -13 -5 -8 7 3 10 2 17 -3 17 -6 0 -10 -6 -10 -14z"/>
<path d="M588 791 c-15 -17 -14 -20 9 -45 13 -14 27 -26 30 -26 4 0 -3 10 -15
23 -24 26 -30 46 -8 28 11 -9 16 -9 21 0 6 8 10 7 16 -2 6 -10 9 -10 9 -2 0
16 -17 26 -25 13 -7 -12 -25 -4 -25 11 0 6 5 7 12 3 7 -4 8 -3 4 4 -9 15 -9
15 -28 -7z"/>
<path d="M2955 788 c5 -24 15 -37 15 -20 0 7 15 12 35 12 19 0 35 4 35 10 0 5
-7 7 -15 4 -8 -4 -23 -3 -32 1 -34 15 -42 13 -38 -7z"/>
<path d="M289 783 c-13 -16 -12 -17 4 -4 9 7 17 15 17 17 0 8 -8 3 -21 -13z"/>
<path d="M1186 793 c6 -4 14 -15 17 -23 5 -11 6 -9 4 4 -1 11 -9 21 -17 23
-10 3 -11 2 -4 -4z"/>
<path d="M1261 784 c0 -11 3 -14 6 -6 3 7 2 16 -1 19 -3 4 -6 -2 -5 -13z"/>
<path d="M1648 793 c7 -3 16 -2 19 1 4 3 -2 6 -13 5 -11 0 -14 -3 -6 -6z"/>
<path d="M1700 789 c0 -5 5 -7 10 -4 6 3 10 8 10 11 0 2 -4 4 -10 4 -5 0 -10
-5 -10 -11z"/>
<path d="M2269 795 c-1 -3 -2 -9 -3 -14 -2 -15 -16 -25 -16 -11 0 9 -3 10 -13
1 -8 -6 -18 -7 -23 -3 -4 4 -2 -1 5 -10 15 -20 26 -24 15 -6 -5 7 -2 9 9 5 8
-3 21 1 27 9 7 8 9 14 4 14 -5 0 -2 5 6 10 10 6 11 10 3 10 -7 0 -14 -2 -14
-5z"/>
<path d="M315 779 c-4 -6 -5 -12 -2 -15 2 -3 7 2 10 11 7 17 1 20 -8 4z"/>
<path d="M755 781 c-3 -5 -2 -12 3 -15 5 -3 9 1 9 9 0 17 -3 19 -12 6z"/>
<path d="M1534 776 c-3 -8 -15 -13 -26 -11 -11 3 -18 1 -14 -2 14 -14 37 -10
46 8 6 10 8 19 5 19 -3 0 -8 -6 -11 -14z"/>
<path d="M1590 780 c0 -5 7 -7 15 -4 8 4 15 8 15 10 0 2 -7 4 -15 4 -8 0 -15
-4 -15 -10z"/>
<path d="M1774 778 c-4 -6 -3 -8 4 -4 5 3 19 -6 30 -20 14 -20 21 -24 27 -14
5 9 4 11 -3 6 -7 -4 -12 -2 -12 3 0 6 5 11 11 11 5 0 7 5 3 11 -4 8 -9 7 -15
-2 -5 -9 -9 -10 -9 -3 0 17 -28 25 -36 12z"/>
<path d="M230 776 c0 -2 8 -10 18 -17 15 -13 16 -12 3 4 -13 16 -21 21 -21 13z"/>
<path d="M660 774 c0 -13 18 -39 24 -34 2 3 -2 14 -10 24 -8 11 -14 16 -14 10z"/>
<path d="M918 773 c7 -3 16 -2 19 1 4 3 -2 6 -13 5 -11 0 -14 -3 -6 -6z"/>
<path d="M1008 773 c7 -3 16 -2 19 1 4 3 -2 6 -13 5 -11 0 -14 -3 -6 -6z"/>
<path d="M1159 763 c-13 -16 -12 -17 4 -4 9 7 17 15 17 17 0 8 -8 3 -21 -13z"/>
<path d="M1281 767 c-1 -11 -6 -15 -13 -11 -7 5 -8 3 -3 -5 10 -16 29 2 22 21
-4 8 -6 7 -6 -5z"/>
<path d="M1617 761 c-10 -14 -10 -14 4 -4 9 7 18 10 21 7 3 -3 8 -1 12 4 9 16
-24 9 -37 -7z"/>
<path d="M1700 759 l-25 -21 25 15 c14 8 35 17 45 20 20 5 20 5 0 6 -11 0 -31
-9 -45 -20z"/>
<path d="M2136 764 c-5 -14 -4 -15 9 -4 17 14 19 20 6 20 -5 0 -12 -7 -15 -16z"/>
<path d="M2281 757 c-13 -21 -12 -21 5 -5 10 10 16 20 13 22 -3 3 -11 -5 -18
-17z"/>
<path d="M2813 774 c3 -4 -4 -15 -16 -26 l-22 -19 26 15 c14 9 30 13 34 9 5
-5 3 0 -4 10 -7 9 -16 17 -19 17 -3 0 -3 -3 1 -6z"/>
<path d="M3053 761 c0 -11 5 -18 9 -15 4 3 5 11 1 19 -7 21 -12 19 -10 -4z"/>
<path d="M405 753 c-18 -14 -18 -15 -1 -9 14 5 17 2 12 -9 -8 -22 1 -19 14 4
13 26 0 33 -25 14z"/>
<path d="M781 754 c0 -11 3 -14 6 -6 3 7 2 16 -1 19 -3 4 -6 -2 -5 -13z"/>
<path d="M820 766 c0 -2 7 -7 16 -10 8 -3 12 -2 9 4 -6 10 -25 14 -25 6z"/>
<path d="M1331 763 c-1 -17 16 -25 25 -12 4 7 3 9 -4 5 -5 -3 -13 0 -15 6 -4
9 -6 10 -6 1z"/>
<path d="M1445 762 c-9 -9 -5 -32 5 -32 5 0 6 7 3 17 -4 10 -2 14 5 9 6 -3 13
-3 16 2 5 9 -20 12 -29 4z"/>
<path d="M2380 760 c0 -5 7 -7 15 -4 8 4 15 8 15 10 0 2 -7 4 -15 4 -8 0 -15
-4 -15 -10z"/>
<path d="M2483 751 c0 -11 5 -18 9 -15 4 3 5 11 1 19 -7 21 -12 19 -10 -4z"/>
<path d="M2713 755 c0 -8 7 -15 14 -15 8 0 11 -5 7 -12 -5 -7 -3 -8 5 -4 9 6
8 13 -5 27 -21 23 -21 23 -21 4z"/>
<path d="M3086 753 c-6 -14 -5 -15 5 -6 7 7 10 15 7 18 -3 3 -9 -2 -12 -12z"/>
<path d="M516 743 c-6 -14 -5 -15 5 -6 7 7 10 15 7 18 -3 3 -9 -2 -12 -12z"/>
<path d="M1725 751 c-3 -5 -2 -12 3 -15 5 -3 9 1 9 9 0 17 -3 19 -12 6z"/>
<path d="M1880 750 c0 -5 5 -10 11 -10 5 0 7 5 4 10 -3 6 -8 10 -11 10 -2 0
-4 -4 -4 -10z"/>
<path d="M2075 749 c-4 -6 -5 -12 -2 -15 2 -3 7 2 10 11 7 17 1 20 -8 4z"/>
<path d="M220 747 c0 -2 6 -10 14 -16 11 -9 16 -9 22 1 4 7 4 10 -1 6 -4 -4
-14 -3 -22 3 -7 6 -13 9 -13 6z"/>
<path d="M317 729 c4 -13 8 -18 11 -10 2 7 -1 18 -6 23 -8 8 -9 4 -5 -13z"/>
<path d="M456 739 c4 -8 30 -6 38 2 3 3 -5 5 -19 5 -13 0 -22 -3 -19 -7z"/>
<path d="M760 741 c0 -7 -5 -9 -12 -5 -7 5 -8 3 -3 -5 5 -9 10 -10 18 -2 6 6
8 14 4 18 -4 3 -7 1 -7 -6z"/>
<path d="M946 733 c-6 -14 -5 -15 5 -6 7 7 10 15 7 18 -3 3 -9 -2 -12 -12z"/>
<path d="M986 742 c-3 -5 1 -9 9 -9 8 0 12 4 9 9 -3 4 -7 8 -9 8 -2 0 -6 -4
-9 -8z"/>
<path d="M1636 733 c-6 -14 -5 -15 5 -6 7 7 10 15 7 18 -3 3 -9 -2 -12 -12z"/>
<path d="M2593 743 c-7 -3 -13 -9 -13 -15 0 -6 7 -4 17 3 15 12 16 12 9 -6 -6
-16 -5 -18 5 -7 15 14 1 32 -18 25z"/>
<path d="M1361 724 c0 -11 3 -14 6 -6 3 7 2 16 -1 19 -3 4 -6 -2 -5 -13z"/>
<path d="M1786 723 c-6 -14 -5 -15 5 -6 7 7 10 15 7 18 -3 3 -9 -2 -12 -12z"/>
<path d="M2520 720 c-9 -6 -10 -10 -3 -10 6 0 15 5 18 10 8 12 4 12 -15 0z"/>
<path d="M339 703 c-13 -16 -12 -17 4 -4 9 7 17 15 17 17 0 8 -8 3 -21 -13z"/>
<path d="M2353 713 c4 -3 1 -13 -6 -22 -11 -14 -10 -14 5 -2 16 12 16 31 1 31
-4 0 -3 -3 0 -7z"/>
<path d="M3026 703 c-6 -14 -5 -15 5 -6 7 7 10 15 7 18 -3 3 -9 -2 -12 -12z"/>
<path d="M245 701 c-3 -5 -2 -12 3 -15 5 -3 9 1 9 9 0 17 -3 19 -12 6z"/>
<path d="M2795 700 c-16 -7 -17 -9 -3 -9 9 -1 20 4 23 9 7 11 7 11 -20 0z"/>
<path d="M3106 693 c-6 -14 -5 -15 5 -6 7 7 10 15 7 18 -3 3 -9 -2 -12 -12z"/>
<path d="M1194 692 c4 -3 14 -7 22 -8 9 -1 13 0 10 4 -4 3 -14 7 -22 8 -9 1
-13 0 -10 -4z"/>
<path d="M1700 691 c0 -6 4 -13 10 -16 6 -3 7 1 4 9 -7 18 -14 21 -14 7z"/>
<path d="M2436 692 c-2 -4 4 -8 14 -8 10 0 16 4 14 8 -3 4 -9 8 -14 8 -5 0
-11 -4 -14 -8z"/>
<path d="M2510 696 c0 -2 7 -7 16 -10 8 -3 12 -2 9 4 -6 10 -25 14 -25 6z"/>
<path d="M2685 690 c-3 -6 1 -7 9 -4 18 7 21 14 7 14 -6 0 -13 -4 -16 -10z"/>
<path d="M2116 682 c-2 -4 4 -8 14 -8 10 0 16 4 14 8 -3 4 -9 8 -14 8 -5 0
-11 -4 -14 -8z"/>
</g>
</svg>
